<svg height="512pt" viewBox="-11 0 512 512.00042" width="512pt" xmlns="http://www.w3.org/2000/svg"><path d="m452.035156 398.042969c24.035156-37.898438 37.964844-82.839844 37.964844-131.042969 0-135.308594-109.691406-245-245-245s-245 109.691406-245 245c0 48.203125 13.929688 93.144531 37.96875 131.042969zm0 0" fill="#55b160"/><path d="m425.917969 34.476562c0-6.996093-.972657-12.972656-2.765625-17.886718-7.082032-3.453125-33.355469-10.65625-61.769532 52.109375-7.996093 17.660156-12.136718 33.363281-13.832031 47.042969 10.78125 8.230468 19.859375 17.804687 26.679688 28.472656 6.71875 10.507812 12.300781 18.203125 18.101562 24.945312 1.730469 2.015625 3.359375 4.066406 4.933594 6.140625-7.402344-56.210937 28.652344-89.09375 28.652344-140.824219zm0 0" fill="#ed435c"/><path d="m374.230469 144.214844c6.71875 10.511718 12.300781 18.203125 18.101562 24.949218 1.730469 2.011719 3.359375 4.066407 4.933594 6.136719-3.164063-24.011719 1.609375-43.769531 8.109375-62.558593-29.121094 20.863281-38.226562-29.503907-40.730469-50.957032-8.386719 17.085938-14.742187 34.996094-17.09375 53.957032 10.78125 8.230468 19.859375 17.804687 26.679688 28.472656zm0 0" fill="#da2f3c"/><path d="m348.726562 116.652344c1.597657-13.660156 5.679688-29.398438 13.710938-47.140625 28.902344-63.84375 55.554688-54.050781 61.382812-50.894531-7.8125-25.84375-36.46875-25.601563-67.972656 5.902343-25.789062 25.785157-58.382812 51.429688-73.121094 62.675781 25.144532 5.179688 48.027344 15.40625 66 29.457032zm0 0" fill="#ffd897"/><path d="m354.601562 67.292969c-10.558593 0-19.117187-8.558594-19.117187-19.117188 0-1.765625.257813-3.464843.703125-5.085937-20.921875 18.828125-42.304688 35.589844-53.460938 44.105468 25.144532 5.179688 48.027344 15.40625 66 29.453126 1.59375-13.65625 5.679688-29.394532 13.710938-47.136719.816406-1.808594 1.632812-3.546875 2.445312-5.234375-2.96875 1.902344-6.492187 3.015625-10.28125 3.015625zm0 0" fill="#f9c55d"/><path d="m65.132812 34.476562c0-6.996093.96875-12.972656 2.765626-17.886718 7.082031-3.453125 33.351562-10.65625 61.769531 52.109375 7.992187 17.660156 12.132812 33.363281 13.832031 47.042969-10.78125 8.230468-19.863281 17.804687-26.683594 28.472656-6.714844 10.507812-12.296875 18.203125-18.097656 24.945312-1.734375 2.015625-3.359375 4.066406-4.933594 6.140625 7.398438-56.210937-28.652344-89.09375-28.652344-140.824219zm0 0" fill="#ed435c"/><path d="m116.816406 144.214844c-6.71875 10.511718-12.300781 18.203125-18.097656 24.949218-1.734375 2.011719-3.363281 4.066407-4.933594 6.136719 3.160156-24.011719-1.609375-43.769531-8.109375-62.558593 29.117188 20.863281 38.222657-29.503907 40.726563-50.957032 8.386718 17.085938 14.742187 34.996094 17.097656 53.957032-10.78125 8.230468-19.863281 17.804687-26.683594 28.472656zm0 0" fill="#da2f3c"/><path d="m142.324219 116.652344c-1.597657-13.660156-5.679688-29.398438-13.714844-47.140625-28.902344-63.84375-55.550781-54.050781-61.382813-50.894531 7.816407-25.84375 36.46875-25.605469 67.976563 5.902343 25.785156 25.785157 58.382813 51.429688 73.117187 62.675781-25.140624 5.179688-48.023437 15.40625-65.996093 29.457032zm0 0" fill="#ffd897"/><path d="m136.445312 67.292969c10.558594 0 19.121094-8.558594 19.121094-19.117188 0-1.765625-.257812-3.464843-.703125-5.085937 20.921875 18.828125 42.304688 35.589844 53.457031 44.105468-25.140624 5.179688-48.023437 15.40625-65.996093 29.453126-1.597657-13.65625-5.679688-29.394532-13.714844-47.136719-.816406-1.808594-1.632813-3.546875-2.445313-5.234375 2.972657 1.902344 6.492188 3.015625 10.28125 3.015625zm0 0" fill="#f9c55d"/><path d="m245 512c87.53125 0 164.328125-45.910156 207.65625-114.957031-43.328125-78.105469-120.125-130.042969-207.65625-130.042969s-164.328125 51.9375-207.65625 130.042969c43.328125 69.046875 120.125 114.957031 207.65625 114.957031zm0 0" fill="#f9c55d"/><path d="m225.296875 422.535156c-3.269531-6.554687 1.964844-9.371094 1.964844-9.371094l-2.636719-145.21875c-78.988281 7.359376-147.347656 57.113282-187.28125 129.097657 36.074219 57.484375 95.347656 98.925781 164.699219 111.199219-20.796875-41.890626 23.253906-85.707032 23.253906-85.707032zm0 0" fill="#fbb03b"/><path d="m107.226562 469.609375c39.257813 26.746094 86.6875 42.390625 137.773438 42.390625s98.515625-15.644531 137.773438-42.390625c-39.257813-30.261719-86.683594-47.960937-137.773438-47.960937s-98.515625 17.699218-137.773438 47.960937zm0 0" fill="#ffd897"/><path d="m225.289062 422.539062c-43.558593 3.925782-83.902343 20.738282-118.058593 47.070313 27.992187 19.074219 60.144531 32.492187 94.8125 38.628906-20.703125-41.703125 22.859375-85.3125 23.246093-85.699219zm0 0" fill="#f9c55d"/><path d="m301.9375 362.371094c-12.453125 3.171875-24.605469 7.363281-36.730469 11.609375-13.210937 4.628906-27.207031 4.628906-40.414062 0-12.125-4.246094-24.28125-8.4375-36.730469-11.609375-23.160156-5.902344-44.148438-15.300782-61.855469-27.359375 4.382813 44.207031 55.890625 79.09375 118.792969 79.09375s114.410156-34.886719 118.792969-79.09375c-17.707031 12.058593-38.699219 21.457031-61.855469 27.359375zm0 0" fill="#1bafea"/><path d="m236.902344 376.894531c-12.761719-1.730469-23.136719-7.976562-48.839844-14.523437-23.15625-5.902344-44.148438-15.300782-61.855469-27.359375 3.964844 39.96875 46.453125 72.320312 101.054688 78.152343-12.707031-11.542968-7.070313-32.597656 9.640625-36.269531zm0 0" fill="#0596d6"/><path d="m421.578125 239.476562c0-26.300781-10.28125-50.808593-27.988281-71.394531-6.605469-7.679687-12.429688-16.109375-17.960938-24.757812-23.296875-36.449219-73.03125-61.628907-130.628906-61.628907s-107.328125 25.179688-130.628906 61.628907c-5.527344 8.648437-11.355469 17.078125-17.960938 24.757812-17.707031 20.585938-27.984375 45.089844-27.984375 71.394531 0 58.066407 50.054688 107.378907 119.636719 125.105469 12.453125 3.171875 24.605469 7.367188 36.730469 11.613281 13.207031 4.625 27.203125 4.628907 40.414062 0 12.128907-4.246093 24.28125-8.441406 36.730469-11.613281 69.582031-17.726562 119.640625-67.039062 119.640625-125.105469zm0 0" fill="#f9c55d"/><path d="m159.25 240.679688c0-29.894532 7.125-57.742188 19.398438-81.140626 4.578124-8.726562 8.617187-18.308593 12.449218-28.140624 7.675782-19.691407 19.5-36.476563 34.074219-48.683594-49.023437 5.03125-90.222656 28.417968-110.800781 60.609375-5.527344 8.648437-11.355469 17.078125-17.957032 24.757812-17.710937 20.585938-27.988281 45.089844-27.988281 71.394531 0 58.066407 50.054688 107.378907 119.640625 125.105469 12.449219 3.171875 24.601563 7.367188 36.726563 11.613281 2.65625.929688 5.347656 1.664063 8.054687 2.21875-43.3125-23.125-73.597656-76.085937-73.597656-137.734374zm0 0" fill="#fbb03b"/><path d="m195.082031 188.660156c.605469 2.214844.9375 4.542969.9375 6.953125 0 14.511719-11.761719 26.273438-26.273437 26.273438-14.515625 0-26.277344-11.761719-26.277344-26.273438 0-7.050781 2.78125-13.449219 7.300781-18.167969 21.59375-3.585937 35.554688 3.046876 44.3125 11.214844zm0 0" fill="#e6ebf4"/><path d="m245 81.695312c-6.988281 0-13.859375.378907-20.582031 1.09375.613281 39.304688 9.59375 70.492188 20.582031 70.492188 10.992188 0 19.972656-31.191406 20.582031-70.492188-6.722656-.71875-13.59375-1.09375-20.582031-1.09375zm0 0" fill="#fbb03b"/><path d="m361.453125 283.921875c-5.289063 6.019531 2.585937 22.1875 18.523437 40.738281 9.484376-8.402344 17.585938-17.707031 24.058594-27.710937-20.355468-13.339844-37.304687-19.027344-42.582031-13.027344zm0 0" fill="#fbb03b"/><path d="m421.574219 239.625c-24.402344-7.171875-43.210938-7.738281-46.535157-.226562-3.6875 8.335937 12.8125 24.082031 38.90625 38.601562 4.941407-12.144531 7.609376-25.027344 7.628907-38.375zm0 0" fill="#fbb03b"/><path d="m85.964844 296.949219c6.472656 10.003906 14.578125 19.308593 24.058594 27.710937 15.9375-18.550781 23.816406-34.722656 18.523437-40.738281-5.277344-6-22.226563-.3125-42.582031 13.027344zm0 0" fill="#f7931e"/><path d="m76.054688 278c26.09375-14.519531 42.59375-30.265625 38.90625-38.601562-3.324219-7.511719-22.132813-6.945313-46.535157.226562.019531 13.347656 2.6875 26.230469 7.628907 38.375zm0 0" fill="#f7931e"/><path d="m327.503906 101.007812c-10.894531-5.667968-22.882812-10.238281-35.675781-13.511718-2.523437 27.863281.917969 48.65625 9.480469 50.371094 7.910156 1.589843 18.058594-13.523438 26.195312-36.859376zm0 0" fill="#fbb03b"/><path d="m188.691406 137.867188c8.566406-1.714844 12.003906-22.507813 9.480469-50.371094-12.792969 3.273437-24.78125 7.84375-35.675781 13.511718 8.136718 23.335938 18.285156 38.449219 26.195312 36.859376zm0 0" fill="#f7931e"/><path d="m294.824219 188.660156c-.605469 2.214844-.9375 4.542969-.9375 6.953125 0 14.511719 11.765625 26.273438 26.277343 26.273438 14.511719 0 26.277344-11.761719 26.277344-26.273438 0-7.050781-2.78125-13.449219-7.300781-18.167969-21.597656-3.585937-35.554687 3.046876-44.316406 11.214844zm0 0" fill="#e6ebf4"/><path d="m338.957031 271.464844c-3.242187-3.242188-8.492187-3.242188-11.734375 0-3.242187 3.242187-3.242187 8.492187 0 11.734375 2.808594 2.808593 5.710938 11.148437 3.015625 20.125-2.851562 9.511719-10.980469 15.898437-23.511719 18.472656-26.042968 5.347656-47.007812-12.296875-53.429687-18.503906v-36.402344c0-4.585937-3.714844-8.300781-8.296875-8.300781s-8.296875 3.714844-8.296875 8.300781v36.421875c-6.390625 6.234375-27.207031 23.863281-53.429687 18.484375-12.53125-2.574219-20.660157-8.960937-23.515626-18.472656-2.691406-8.976563.210938-17.316407 3.019532-20.125 3.242187-3.238281 3.242187-8.492188 0-11.734375-3.238282-3.242188-8.492188-3.242188-11.734375 0-8.226563 8.230468-11.179688 23.289062-7.179688 36.625 9.820313 32.742187 60.910157 45.570312 101.136719 10.148437 41.777344 36.792969 91.890625 20.671875 101.136719-10.148437 4-13.335938 1.046875-28.398438-7.179688-36.625zm0 0" fill="#fbb03b"/><path d="m264.957031 312.519531c-5.390625-3.492187-9.414062-7.058593-11.660156-9.226562v-36.402344c0-4.585937-3.710937-8.300781-8.296875-8.300781-4.582031 0-8.296875 3.714844-8.296875 8.300781v36.421875c-6.390625 6.234375-27.207031 23.863281-53.429687 18.484375-12.53125-2.574219-20.660157-8.960937-23.515626-18.472656-2.691406-8.976563.210938-17.316407 3.019532-20.125 3.242187-3.238281 3.242187-8.492188 0-11.734375-3.238282-3.242188-8.492188-3.242188-11.734375 0-8.226563 8.230468-11.179688 23.289062-7.179688 36.625 9.820313 32.742187 60.910157 45.570312 101.136719 10.148437 3.980469 3.507813 8.039062 6.527344 12.125 9.105469-4.53125-6.175781-.050781-15.078125 7.832031-14.824219zm0 0" fill="#f7931e"/><g fill="#493d71"><path d="m411.441406 348.074219c-40.484375-32.183594-83.917968-49.320313-105.09375-52.785157-4.515625-.746093-7.582031-5.007812-6.84375-9.527343.734375-4.515625 4.984375-7.585938 9.503906-6.855469 2.15625.347656 53.488282 9.058594 112.757813 56.175781 3.589844 2.851563 4.1875 8.074219 1.332031 11.660157-2.839844 3.574218-8.058594 4.191406-11.65625 1.332031zm0 0"/><path d="m359.511719 384.378906c-31.035157-44.902344-68.1875-67.113281-68.558594-67.332031-3.949219-2.328125-5.261719-7.414063-2.9375-11.363281 2.328125-3.949219 7.417969-5.257813 11.363281-2.933594 1.644532.96875 40.695313 24.316406 73.785156 72.195312 2.605469 3.769532 1.664063 8.9375-2.109374 11.542969-3.75 2.59375-8.925782 1.679688-11.542969-2.109375zm0 0"/><path d="m66.902344 346.742188c-2.851563-3.589844-2.257813-8.808594 1.332031-11.660157 59.273437-47.117187 110.605469-55.828125 112.761719-56.175781 4.523437-.730469 8.78125 2.347656 9.511718 6.871094.726563 4.519531-2.339843 8.773437-6.859374 9.507812-22.492188 3.75-65.476563 21.296875-105.089844 52.785156-3.59375 2.859376-8.8125 2.25-11.65625-1.328124zm0 0"/><path d="m118.945312 386.488281c-3.773437-2.605469-4.714843-7.773437-2.109374-11.542969 33.089843-47.882812 72.136718-71.226562 73.785156-72.195312 3.945312-2.328125 9.035156-1.015625 11.359375 2.933594 2.328125 3.945312 1.019531 9.027344-2.925781 11.355468-.371094.222657-37.660157 22.621094-68.566407 67.339844-2.613281 3.78125-7.785156 4.707032-11.542969 2.109375zm0 0"/></g><path d="m265.542969 247.492188c0 9.542968-9.195313 21.734374-20.542969 21.734374s-20.542969-12.191406-20.542969-21.734374c0-9.546876 9.195313-12.046876 20.542969-12.046876s20.542969 2.5 20.542969 12.046876zm0 0" fill="#574f7f"/><path d="m241.789062 245.265625c0-4.90625 2.441407-7.941406 6.34375-9.742187-1.023437-.046876-2.066406-.078126-3.132812-.078126-11.347656 0-20.542969 2.5-20.542969 12.046876 0 9.542968 9.195313 21.734374 20.542969 21.734374 3.878906 0 7.503906-1.425781 10.597656-3.679687-8.035156-3.507813-13.808594-12.722656-13.808594-20.28125zm0 0" fill="#493d71"/><path d="m199.886719 200.941406c0-11.566406-7.742188-20.945312-17.289063-20.945312s-17.285156 9.378906-17.285156 20.945312 7.738281 20.945313 17.285156 20.945313 17.289063-9.378907 17.289063-20.945313zm0 0" fill="#574f7f"/><path d="m172.738281 210.132812c9.550781 0 17.289063-9.378906 17.289063-20.945312 0-2.757812-.449219-5.378906-1.25-7.789062 6.492187 3.019531 11.105468 10.617187 11.105468 19.542968 0 11.570313-7.738281 20.945313-17.285156 20.945313-7.273437 0-13.488281-5.449219-16.039062-13.15625 1.921875.890625 4 1.402343 6.179687 1.402343zm0 0" fill="#493d71"/><path d="m324.6875 200.941406c0-11.566406-7.738281-20.945312-17.285156-20.945312s-17.289063 9.378906-17.289063 20.945312 7.742188 20.945313 17.289063 20.945313 17.285156-9.378907 17.285156-20.945313zm0 0" fill="#574f7f"/><path d="m317.261719 210.132812c-9.546875 0-17.289063-9.378906-17.289063-20.945312 0-2.757812.449219-5.378906 1.25-7.789062-6.492187 3.019531-11.105468 10.617187-11.105468 19.542968 0 11.570313 7.738281 20.945313 17.285156 20.945313 7.273437 0 13.488281-5.449219 16.039062-13.15625-1.921875.890625-4 1.402343-6.179687 1.402343zm0 0" fill="#493d71"/><path d="m208.417969 217.953125c-3.628907 0-6.957031-2.398437-7.984375-6.058594-.101563-.34375-4.585938-15.171875-18.6875-22.667969-10.992188-5.839843-25.226563-5.988281-42.308594-.445312-4.359375 1.410156-9.039062-.976562-10.453125-5.335938-1.414063-4.359374.972656-9.039062 5.332031-10.453124 21.660156-7.023438 40.324219-6.441407 55.484375 1.722656 20.445313 11.019531 26.378907 31.855468 26.621094 32.734375 1.453125 5.28125-2.527344 10.503906-8.003906 10.503906zm0 0" fill="#fbb03b"/><path d="m279.246094 217.617188c-4.394532-1.238282-6.972656-5.769532-5.761719-10.167969.246094-.882813 6.179687-21.714844 26.625-32.734375 15.15625-8.164063 33.824219-8.746094 55.484375-1.722656 4.359375 1.414062 6.746094 6.09375 5.332031 10.453124-1.414062 4.363282-6.101562 6.746094-10.453125 5.335938-17.085937-5.542969-31.320312-5.390625-42.308594.445312-14.195312 7.546876-18.644531 22.523438-18.6875 22.671876-1.265624 4.386718-5.835937 6.953124-10.230468 5.71875zm0 0" fill="#fbb03b"/><path d="m166.0625 178.152344c0-4.617188 3.457031-8.417969 7.921875-8.96875-11.75-2.203125-25.019531-.941406-39.667969 3.808594-4.359375 1.414062-6.746094 6.09375-5.332031 10.453124 1.410156 4.359376 6.09375 6.746094 10.449219 5.332032 11.339844-3.675782 21.410156-4.832032 30.121094-3.496094-2.121094-1.65625-3.492188-4.230469-3.492188-7.128906zm0 0" fill="#f7931e"/><path d="m312.441406 169.941406c-4.332031 1.097656-8.449218 2.683594-12.332031 4.773438-20.445313 11.015625-26.378906 31.851562-26.625 32.734375-1.210937 4.398437 1.367187 8.929687 5.761719 10.164062 4.394531 1.238281 8.964844-1.328125 10.230468-5.714843.042969-.152344 4.492188-15.125 18.6875-22.671876 3.351563-1.78125 7.007813-3.023437 10.949219-3.746093-7.890625-.25-11.9375-9.632813-6.671875-15.539063zm0 0" fill="#f7931e"/></svg>